<?xml version="1.0" encoding="UTF-8"?>
<svg width="568px" height="669px" viewBox="0 0 568 669" version="1.1" xmlns="http://www.w3.org/2000/svg" xmlns:xlink="http://www.w3.org/1999/xlink">
    <!-- Generator: Sketch 50.2 (55047) - http://www.bohemiancoding.com/sketch -->
    <title>big_logo</title>
    <desc>Created with Sketch.</desc>
    <defs></defs>
    <g id="Page-1" stroke="none" stroke-width="1" fill="none" fill-rule="evenodd">
        <g id="Desktop-HD" transform="translate(-152.000000, -167.000000)" stroke="#FF7500" stroke-width="12">
            <polyline id="big_logo" points="618.352481 358.481427 712.73177 358.198481 713 267.055551 619.969908 267.336392 620.240208 174.82192 527.885682 175.096856 527.615304 268.296126 437.2798 268.568889 437.557968 174 343.852332 174.278987 343.579871 268.853678 437.957258 268.568798 437.681003 363.135741 343.97727 363.416662 343.714692 455.242433 434.718107 454.971548 434.455608 546.112521 344.797574 546.381313 345.058091 455.923204 253.37911 456.199994 253.65354 360.946319 159.274262 361.225385 159 455.105585 254.052931 454.822559 253.776586 550.07818 343.432707 549.811334 343.166302 641.640996 437.547505 641.356105 437.269337 735.924994 342.893864 736.207928 342.623486 829.407198 250.26896 829.682135 250.545304 734.426513"></polyline>
        </g>
    </g>
</svg>